<svg xmlns="http://www.w3.org/2000/svg" viewBox="0 0 200 200">
  <defs>
    <radialGradient id="bg" cx="50%" cy="35%" r="75%">
      <stop offset="0%" stop-color="#1E1E22"/>
      <stop offset="100%" stop-color="#141416"/>
    </radialGradient>
    <linearGradient id="liquid" x1="0" y1="0" x2="1" y2="0">
      <stop offset="0%" stop-color="#e8d385"/>
      <stop offset="50%" stop-color="#e8d385"/>
      <stop offset="100%" stop-color="#a9862f"/>
    </linearGradient>
  </defs>
  <rect width="200" height="200" fill="url(#bg)"/>
  <ellipse cx="100" cy="172" rx="42" ry="8" fill="#2563EB" opacity="0.18"/>
  <g transform="translate(100,100)">
    <rect x="-7" y="-80" width="14" height="24" rx="2" fill="#3a3f47"/><path d="M -7 -58 L -7 -42 L -20 -22 L -20 40 Q -20 78 0 78 Q 20 78 20 40 L 20 -22 L 7 -42 L 7 -58 Z" fill="url(#liquid)" opacity="0.95"/>
    <rect x="-24" y="8" width="48" height="28" fill="#0B0B0D" opacity="0.55" rx="2"/><rect x="-18" y="14" width="36" height="3.5" fill="#F4F4F5"/><rect x="-18" y="21" width="24" height="2.5" fill="#71717A"/><rect x="-18" y="27" width="28" height="2.5" fill="#71717A"/>
  </g>
  <text x="100" y="186" text-anchor="middle" font-family="Arial, sans-serif" font-size="10" letter-spacing="1" fill="#52525B">KODA BEBIDAS</text>
</svg>
